<svg xmlns="http://www.w3.org/2000/svg" width="256" height="256" viewBox="0 0 256 256" role="img" aria-labelledby="title desc">
  <title id="title">Ochre</title>
  <desc id="desc">Two rings, amber and burnt orange, overlapping into one O.</desc>
  <g style="isolation:isolate">
    <path d="M16 96a80 80 0 1 0 160 0a80 80 0 1 0-160 0ZM53 96a43 43 0 1 1 86 0a43 43 0 1 1-86 0Z" fill="#F4B23C" fill-rule="evenodd"/>
    <path d="M80 160a80 80 0 1 0 160 0a80 80 0 1 0-160 0ZM117 160a43 43 0 1 1 86 0a43 43 0 1 1-86 0Z" fill="#D2561E" fill-rule="evenodd" style="mix-blend-mode:multiply"/>
  </g>
</svg>
